<svg width="150" height="244" viewBox="0 0 150 244" fill="none" xmlns="http://www.w3.org/2000/svg">
<rect width="150" height="244" fill="#1E1E1E"/>
<path d="M25.5 36.5V21.5L36 11H46L56 18L25.5 36.5Z" fill="#E01ED3"/>
<path d="M97.5 18L116.5 33L127.5 36.5L125.5 21.5L116.5 14L105 11L97.5 18Z" fill="#E01ED3"/>
<path d="M20 59L26 39.5L42 32.5V52.5L31.5 65.5L20 59Z" fill="#D9D9D9"/>
<path d="M120 65.5L132.5 62V47L126 37.5L114.5 32.5L111.5 52.5L120 65.5Z" fill="#D9D9D9"/>
<path d="M123 68.5L136.5 63L143 78.5L150 112.5H143L125 86.5L123 68.5Z" fill="#5D20E1"/>
<path d="M19 63L32 68.5L28.5 83.5L8 112.5L0 109.5L8 78.5L19 63Z" fill="#5D20E1"/>
<path d="M42.5 33L44.5 42.5H64.5L79 71L97 42.5H112L113.5 32.5L97 18L82.5 11.5H79L62.5 18L42.5 33Z" fill="#F57F18"/>
<path d="M47.5 93L78 104.5L105 95L94 90L80 71.5L60 90L47.5 93Z" fill="#1CE473"/>
<path d="M47.5 97L39 130L47.5 145L76.5 133L105 145L110.5 130L103 97L76.5 105.5L47.5 97Z" fill="#0BE4E8"/>
<path d="M59.5 198L50 205.5L43.5 223.5L52.5 243.5H69V223.5L65 205.5L59.5 198Z" fill="#F2D8B1"/>
<path d="M94 198L87 205.5L83 223.5L87 243.5H103L106 223.5L103 205.5L94 198Z" fill="#F2D8B1"/>
<path d="M79 135L84.5 206L94.5 195.5L104 206L110.5 135L106.5 146.5L79 135Z" fill="black"/>
<path d="M38.5 135L42 174.5L47.5 201L57 195.5L68.5 206V190.5L75.5 135L50 146.5L38.5 135Z" fill="black"/>
<path d="M82 70L95 87.5L100.5 77.5L109 53V45.5H100.5L82 70Z" fill="#CCE017"/>
<path d="M45 45.5H64L78.5 70L61 87.5L50.5 75L45 53V45.5Z" fill="#CCE017"/>
<path d="M76 3L83 11.5L96.5 17L103.5 11.5L94 3L88 0L76 3Z" fill="#EC1616"/>
<path d="M48 9.5L57.5 19.5L73 13.5L76 3L63 0L48 9.5Z" fill="#EA1717"/>
<path d="M96 88.5L102.5 77.5L104 92L96 88.5Z" fill="#0F4524"/>
<path d="M49.5 77.5L46.5 92L61 88.5L49.5 77.5Z" fill="#0F4524"/>
</svg>
