<svg width="366" height="398" viewBox="0 0 366 398" fill="none" xmlns="http://www.w3.org/2000/svg">
<rect width="366" height="398" fill="white"/>
<path d="M125.5 109.5V94.5L136 84H146L156 91L125.5 109.5Z" fill="#E01ED3"/>
<path d="M197.5 91L216.5 106L227.5 109.5L225.5 94.5L216.5 87L205 84L197.5 91Z" fill="#E01ED3"/>
<path d="M120 132L126 112.5L142 105.5V125.5L131.5 138.5L120 132Z" fill="#D9D9D9"/>
<path d="M220 138.5L232.5 135V120L226 110.5L214.5 105.5L211.5 125.5L220 138.5Z" fill="#D9D9D9"/>
<path d="M223 141.5L236.5 136L243 151.5L250 185.5H243L225 159.5L223 141.5Z" fill="#5D20E1"/>
<path d="M119 136L132 141.5L128.5 156.5L108 185.5L100 182.5L108 151.5L119 136Z" fill="#5D20E1"/>
<path d="M142.5 106L144.5 115.5H164.5L179 144L197 115.5H212L213.5 105.5L197 91L182.5 84.5H179L162.5 91L142.5 106Z" fill="#F57F18"/>
<path d="M147.5 166L178 177.5L205 168L194 163L180 144.5L160 163L147.5 166Z" fill="#1CE473"/>
<path d="M147.5 170L139 203L147.5 218L176.5 206L205 218L210.5 203L203 170L176.5 178.5L147.5 170Z" fill="#0BE4E8"/>
<path d="M159.5 271L150 278.5L143.5 296.5L152.5 316.5H169V296.5L165 278.5L159.5 271Z" fill="#F2D8B1"/>
<path d="M194 271L187 278.5L183 296.5L187 316.5H203L206 296.5L203 278.5L194 271Z" fill="#F2D8B1"/>
<path d="M179 208L184.5 279L194.5 268.5L204 279L210.5 208L206.5 219.5L179 208Z" fill="black"/>
<path d="M138.5 208L142 247.5L147.5 274L157 268.5L168.5 279V263.5L175.5 208L150 219.5L138.5 208Z" fill="black"/>
<path d="M182 143L195 160.5L200.5 150.5L209 126V118.5H200.5L182 143Z" fill="#CCE017"/>
<path d="M145 118.5H164L178.5 143L161 160.5L150.5 148L145 126V118.5Z" fill="#CCE017"/>
<path d="M176 76L183 84.5L196.5 90L203.5 84.5L194 76L188 73L176 76Z" fill="#EC1616"/>
<path d="M148 82.5L157.5 92.5L173 86.5L176 76L163 73L148 82.5Z" fill="#EA1717"/>
<path d="M196 161.5L202.5 150.5L204 165L196 161.5Z" fill="#0F4524"/>
<path d="M149.5 150.5L146.5 165L161 161.5L149.5 150.5Z" fill="#0F4524"/>
</svg>
