<svg width="32" height="32" viewBox="0 0 32 32" fill="none" xmlns="http://www.w3.org/2000/svg">
  <rect width="32" height="32" rx="8" fill="#0A84FF"/>
  <path d="M9 10C9 9.44772 9.44772 9 10 9H14C14.5523 9 15 9.44772 15 10V22C15 22.5523 14.5523 23 14 23H10C9.44772 23 9 22.5523 9 22V10Z" fill="white"/>
  <path d="M17 10C17 9.44772 17.4477 9 18 9H22C22.5523 9 23 9.44772 23 10V14C23 14.5523 22.5523 15 22 15H18C17.4477 15 17 14.5523 17 14V10Z" fill="white"/>
  <path d="M17 18C17 17.4477 17.4477 17 18 17H22C22.5523 17 23 17.4477 23 18V22C23 22.5523 22.5523 23 22 23H18C17.4477 23 17 22.5523 17 22V18Z" fill="white"/>
</svg>